<?xml version="1.0" encoding="UTF-8"?>
<svg id="_圖層_1" data-name="圖層_1" xmlns="http://www.w3.org/2000/svg" version="1.1" viewBox="0 0 1300 200">
  <!-- Generator: Adobe Illustrator 29.6.0, SVG Export Plug-In . SVG Version: 2.1.1 Build 207)  -->
  <defs>
    <style>
      .st0 {
        fill: #fff;
      }

      .st1 {
        fill: none;
        stroke: #fff;
        stroke-miterlimit: 10;
        stroke-width: 4.61px;
      }
    </style>
  </defs>
  <g>
    <g>
      <g>
        <path class="st0" d="M774.67,100.08c0-35.44,14.37-53.89,36.44-53.9,22.08,0,36.32,18.58,36.33,53.88,0,35.59-14.22,54.91-36.3,54.91-22.08,0-36.46-19.31-36.47-54.89ZM827.26,100.07c0-29.05-6.84-37.18-16.13-37.18-9.3,0-16.27,8.14-16.26,37.19,0,29.2,6.98,38.2,16.28,38.2,9.3,0,16.12-9.01,16.11-38.2Z"/>
        <path class="st0" d="M861.4,142.76l11.33-12.93c3.78,4.36,10.31,7.7,16.56,7.69,12.35,0,22.51-9.01,23.38-36.03-5.95,7.41-15.1,11.77-22.07,11.77-18.01,0-30.94-10.45-30.95-32.38,0-21.35,15.39-34.72,33.83-34.72,20.34,0,38.64,15.53,38.65,51.55.01,39.94-19.88,57.23-41.53,57.24-13.22,0-22.95-5.66-29.2-12.19ZM894.65,98.01c5.67,0,12.49-3.34,17.43-11.48-2.18-17.57-9.45-24.25-18.31-24.25-7.99,0-14.52,6.11-14.52,18.6,0,11.77,5.96,17.14,15.4,17.13Z"/>
        <path class="st0" d="M949.71,140.99c0-7.99,5.66-13.95,13.21-13.95,7.7,0,13.36,5.95,13.37,13.94,0,7.84-5.66,13.94-13.36,13.95-7.55,0-13.22-6.1-13.22-13.94Z"/>
        <path class="st0" d="M992.85,140.55c28.02-26.73,46.47-45.04,46.46-60.58,0-10.6-5.81-16.99-16.13-16.99-7.84,0-14.23,5.23-19.75,11.19l-11.62-11.62c9.87-10.61,19.46-16.42,34.13-16.42,20.34,0,33.85,12.92,33.85,32.67,0,18.3-16.84,37.19-36.01,57.24,5.37-.58,12.49-1.17,17.57-1.17h23.53s0,18,0,18l-72.04.02v-12.35Z"/>
        <path class="st0" d="M1078.98,126.14c0-12.93,8.56-21.21,18.44-26.44v-.58c-8.14-5.95-14.24-13.65-14.24-24.69,0-17.28,13.79-28.33,32.38-28.33,19.03,0,31.23,11.32,31.24,28.46,0,10.31-6.97,18.74-13.79,23.53v.73c9.73,5.52,18.02,13.21,18.02,27.3,0,16.27-14.37,28.76-36.16,28.77-20.48,0-35.88-11.9-35.88-28.75ZM1131.12,125.4c0-10.46-10.03-14.23-23.83-19.89-5.66,4.5-9.87,10.9-9.87,18.3,0,9.73,7.99,15.98,18.01,15.97,9.15,0,15.69-5.09,15.68-14.38ZM1129.37,76.02c0-8.72-5.23-14.81-14.24-14.81-7.26,0-13.07,4.65-13.07,13.22,0,9.59,8.43,14.09,19.61,18.44,4.94-5.23,7.7-10.9,7.69-16.85Z"/>
      </g>
      <g>
        <circle class="st1" cx="1217.94" cy="101.4" r="51.67" transform="translate(1010.09 1305.75) rotate(-84.97)"/>
        <path class="st0" d="M1239.06,76.13v52.01s-7.73,0-7.73,0v-3.81s-26.85,0-26.85,0v3.93s-7.44,0-7.44,0v-52.13s42.02-.01,42.02-.01ZM1204.46,83.39v13s26.86,0,26.86,0v-13s-26.86,0-26.86,0ZM1231.33,117.08v-13.55s-26.86,0-26.86,0v13.55s26.86,0,26.86,0Z"/>
      </g>
    </g>
    <g>
      <g>
        <path class="st0" d="M150.81,100.08c0-35.44,14.37-53.89,36.44-53.9,22.08,0,36.32,18.58,36.33,53.88,0,35.59-14.22,54.91-36.3,54.91-22.08,0-36.46-19.31-36.47-54.89ZM203.39,100.07c0-29.05-6.84-37.18-16.13-37.18-9.3,0-16.27,8.14-16.26,37.19,0,29.19,6.98,38.2,16.28,38.2,9.3,0,16.12-9.01,16.11-38.2Z"/>
        <path class="st0" d="M237.09,103.4c-.01-39.94,19.88-57.23,41.67-57.24,13.07,0,22.66,5.51,29.05,12.19l-11.33,12.79c-3.78-4.21-10.31-7.7-16.56-7.69-12.35,0-22.51,9.16-23.38,36.17,5.95-7.41,15.1-11.77,22.07-11.77,18.01,0,30.94,10.3,30.95,32.24,0,21.5-15.39,34.86-33.83,34.87-20.34,0-38.64-15.68-38.65-51.55ZM257.14,114.43c2.04,17.72,9.3,24.4,18.16,24.4,8.13,0,14.67-6.25,14.67-18.74,0-11.76-6.11-17.14-15.4-17.13-5.52,0-12.05,3.05-17.43,11.48Z"/>
        <path class="st0" d="M325.85,141c0-7.99,5.66-13.95,13.21-13.95,7.7,0,13.36,5.95,13.37,13.94,0,7.84-5.66,13.95-13.36,13.95-7.55,0-13.22-6.1-13.22-13.94Z"/>
        <path class="st0" d="M368.99,140.55c28.02-26.73,46.47-45.04,46.46-60.58,0-10.6-5.81-16.99-16.13-16.99-7.84,0-14.23,5.23-19.75,11.19l-11.62-11.62c9.87-10.61,19.46-16.42,34.13-16.42,20.34,0,33.85,12.92,33.85,32.67,0,18.3-16.84,37.19-36.01,57.24,5.37-.58,12.49-1.17,17.57-1.17h23.53s0,18.01,0,18.01l-72.04.02v-12.35Z"/>
        <path class="st0" d="M503.9,66h-48.37s0-17.85,0-17.85l71.46-.02v13.07c-24.39,29.78-28.31,50.85-30.04,91.66h-21.64c1.88-36.16,8.55-58.97,28.59-86.86Z"/>
      </g>
      <g>
        <circle class="st1" cx="596.47" cy="101.4" r="51.67" transform="translate(103 451.46) rotate(-45)"/>
        <path class="st0" d="M623.52,119v7.14s-53.95.01-53.95.01v-7.14s12.88,0,12.88,0c1.21-4.84,2.42-10.52,3.56-16.33h-10.95s0-7.07,0-7.07h12.28c.66-3.57,1.27-7.14,1.81-10.53h-16.09s0-7.07,0-7.07h46.51s0,7.06,0,7.06h-22.38c-.6,3.45-1.27,6.96-1.93,10.53h18.81s0,23.4,0,23.4h9.44ZM593.94,102.68c-1.15,5.87-2.36,11.55-3.44,16.33h16.09s0-16.33,0-16.33h-12.64Z"/>
      </g>
    </g>
    <polygon class="st0" points="732.94 101.79 694.03 79.33 694.03 124.26 732.94 101.79"/>
  </g>
  <g>
    <g>
      <path class="st0" d="M64.4,145.07h-24.77c.06-.21.13-.4.21-.59.27-.6.78-1.23,1.51-1.88.82-.73,1.97-1.54,3.4-2.4,1.51-.91,3.45-2.01,5.77-3.28,1.93-1.06,3.64-2.13,5.08-3.17,1.49-1.07,2.76-2.22,3.76-3.41,1.03-1.23,1.82-2.56,2.33-3.96.51-1.4.78-2.98.78-4.68,0-1.93-.44-3.68-1.3-5.2-.85-1.49-2.02-2.76-3.49-3.77-1.42-.98-3.11-1.72-5.03-2.22-1.87-.49-3.92-.74-6.09-.74-3.01,0-5.62.35-7.76,1.03-2.15.69-4.12,1.69-5.85,2.99l-.62.46v8.85l2.54-2.18c.75-.64,1.57-1.23,2.44-1.76.87-.53,1.78-.99,2.72-1.37.93-.38,1.9-.68,2.88-.89.96-.21,1.96-.32,2.96-.32,1.17,0,2.26.13,3.25.38.93.24,1.74.6,2.42,1.07.64.45,1.13,1,1.49,1.67.35.65.53,1.44.53,2.36s-.13,1.73-.39,2.51c-.25.76-.7,1.54-1.32,2.3-.66.81-1.57,1.65-2.68,2.49-1.16.87-2.64,1.8-4.4,2.77-2.54,1.43-4.72,2.73-6.46,3.87-1.83,1.19-3.34,2.41-4.49,3.62-1.21,1.28-2.1,2.66-2.63,4.1-.53,1.42-.8,3.07-.8,4.9v3.45h34.02v-7.03Z"/>
      <path class="st0" d="M94.93,117.37v-6.95h-25.72l-1.97,22.24,1.81-.17c.54-.05,1.16-.09,1.85-.13.69-.03,1.4-.07,2.13-.09.73-.03,1.46-.05,2.18-.07.72-.02,1.41-.03,2.06-.03,3.79,0,6.67.63,8.57,1.86,1.74,1.13,2.55,2.58,2.55,4.55,0,.98-.21,1.85-.63,2.66-.43.82-1.04,1.51-1.87,2.1-.86.62-1.94,1.11-3.2,1.47-1.29.37-2.78.55-4.42.55-3.26,0-6.49-.78-9.62-2.33l-2.19-1.08v8.01l.86.41c2.45,1.17,6.01,1.74,10.87,1.74,2.76,0,5.31-.31,7.59-.93,2.32-.63,4.34-1.54,6-2.72,1.71-1.21,3.05-2.68,3.98-4.38.95-1.72,1.43-3.66,1.43-5.76s-.43-3.85-1.29-5.49c-.86-1.64-2.12-3.03-3.76-4.15-1.57-1.08-3.5-1.91-5.73-2.48-2.18-.56-4.67-.84-7.4-.84-.65,0-1.41.01-2.25.04-.21,0-.42.01-.63.02l.72-8.06h18.06Z"/>
    </g>
    <g>
      <path class="st0" d="M51.85,62.14c-.66.81-1.57,1.65-2.68,2.49-1.16.87-2.64,1.8-4.4,2.77-2.54,1.43-4.72,2.73-6.46,3.87-1.83,1.19-3.34,2.41-4.49,3.62-1.21,1.28-2.1,2.66-2.63,4.1-.53,1.42-.8,3.07-.8,4.9v3.45h34.02v-7.03h-24.77c.06-.21.13-.4.21-.59.27-.6.78-1.23,1.51-1.88.82-.73,1.97-1.54,3.4-2.4,1.51-.91,3.45-2.01,5.77-3.28,1.93-1.06,3.64-2.13,5.08-3.17,1.49-1.07,2.76-2.22,3.76-3.41,1.03-1.23,1.82-2.56,2.33-3.96.52-1.4.78-2.97.78-4.68,0-1.93-.44-3.68-1.3-5.2-.85-1.49-2.02-2.76-3.49-3.77-1.42-.98-3.11-1.72-5.03-2.22-1.87-.49-3.92-.74-6.09-.74-3.01,0-5.62.35-7.76,1.03-2.15.69-4.12,1.69-5.85,2.99l-.62.46v8.85l2.54-2.18c.75-.64,1.57-1.23,2.44-1.76.87-.53,1.78-.99,2.72-1.37.93-.38,1.9-.68,2.88-.89.96-.21,1.96-.32,2.96-.32,1.17,0,2.26.13,3.25.38.93.24,1.74.6,2.42,1.07.64.45,1.13,1,1.49,1.67.35.65.53,1.44.53,2.36s-.13,1.73-.39,2.51c-.25.76-.7,1.54-1.32,2.3Z"/>
      <path class="st0" d="M83.01,45.02c-2.87,0-5.48.48-7.73,1.43-2.3.97-4.25,2.43-5.8,4.34-1.52,1.87-2.69,4.21-3.46,6.94-.76,2.67-1.14,5.77-1.14,9.21,0,3.15.37,6,1.09,8.47.74,2.53,1.86,4.7,3.31,6.46,1.48,1.79,3.32,3.16,5.47,4.09,2.12.92,4.55,1.38,7.23,1.38,2.81,0,5.36-.48,7.6-1.43,2.27-.97,4.21-2.4,5.76-4.26,1.54-1.84,2.72-4.1,3.52-6.74.79-2.59,1.18-5.58,1.18-8.89,0-17.35-9.26-20.99-17.03-20.99ZM82.53,80.61c-2.19,0-8.85,0-8.85-13.88,0-15,6.81-15,9.05-15,2.1,0,8.5,0,8.5,14.7s-6.55,14.17-8.71,14.17Z"/>
    </g>
  </g>
</svg>