<?xml version="1.0" encoding="UTF-8"?>
<svg id="_圖層_2" data-name="圖層_2" xmlns="http://www.w3.org/2000/svg" version="1.1" viewBox="0 0 1100 50">
  <!-- Generator: Adobe Illustrator 29.6.0, SVG Export Plug-In . SVG Version: 2.1.1 Build 207)  -->
  <defs>
    <style>
      .st0 {
        fill: #fff;
      }
    </style>
  </defs>
  <path class="st0" d="M15.81,36.27h15.07v6.5H7.23v-2.68c0-1.82.31-3.45.92-4.9.61-1.45,1.38-2.74,2.31-3.89.92-1.15,1.94-2.17,3.04-3.05,1.1-.88,2.14-1.68,3.14-2.39,1.04-.74,1.95-1.45,2.74-2.13.79-.68,1.45-1.35,1.98-2.02.54-.67.94-1.35,1.2-2.03.26-.69.4-1.42.4-2.19,0-1.52-.43-2.67-1.29-3.45-.86-.78-2.17-1.17-3.94-1.17-3.06,0-5.98,1.21-8.78,3.64v-6.89c3.09-2,6.58-3,10.46-3,1.8,0,3.42.24,4.85.71,1.43.47,2.64,1.15,3.63,2.02.99.88,1.75,1.94,2.27,3.19.52,1.25.78,2.64.78,4.18,0,1.64-.25,3.09-.76,4.36-.5,1.27-1.17,2.43-2.01,3.47-.83,1.04-1.8,2-2.89,2.86-1.09.87-2.22,1.71-3.4,2.52-.79.56-1.56,1.12-2.29,1.67-.74.55-1.38,1.1-1.95,1.64-.56.54-1.01,1.06-1.34,1.58-.33.51-.5,1-.5,1.46Z"/>
  <path class="st0" d="M48.81,43.38c-8.46,0-12.69-5.94-12.69-17.83,0-6.17,1.14-10.86,3.43-14.09,2.29-3.23,5.61-4.85,9.95-4.85,8.26,0,12.4,6.04,12.4,18.12,0,6.02-1.13,10.63-3.38,13.83-2.26,3.21-5.49,4.81-9.71,4.81ZM49.15,12.59c-3.39,0-5.08,4.26-5.08,12.77,0,8.02,1.66,12.02,4.98,12.02s4.86-4.13,4.86-12.4-1.59-12.4-4.76-12.4Z"/>
  <path class="st0" d="M74.22,36.27h15.07v6.5h-23.65v-2.68c0-1.82.31-3.45.92-4.9.61-1.45,1.38-2.74,2.31-3.89.92-1.15,1.94-2.17,3.04-3.05,1.1-.88,2.14-1.68,3.14-2.39,1.04-.74,1.95-1.45,2.74-2.13.79-.68,1.45-1.35,1.98-2.02.54-.67.94-1.35,1.2-2.03.26-.69.4-1.42.4-2.19,0-1.52-.43-2.67-1.29-3.45-.86-.78-2.17-1.17-3.94-1.17-3.06,0-5.98,1.21-8.78,3.64v-6.89c3.09-2,6.58-3,10.46-3,1.8,0,3.42.24,4.85.71,1.43.47,2.64,1.15,3.63,2.02.99.88,1.75,1.94,2.27,3.19.52,1.25.78,2.64.78,4.18,0,1.64-.25,3.09-.76,4.36-.5,1.27-1.17,2.43-2.01,3.47-.83,1.04-1.8,2-2.89,2.86-1.09.87-2.22,1.71-3.4,2.52-.79.56-1.56,1.12-2.29,1.67-.74.55-1.38,1.1-1.95,1.64-.56.54-1.01,1.06-1.34,1.58-.33.51-.5,1-.5,1.46Z"/>
  <path class="st0" d="M96.31,41.85v-6.69c2.43,1.49,5.02,2.23,7.76,2.23,2.07,0,3.68-.49,4.85-1.48,1.17-.98,1.75-2.32,1.75-4,0-3.52-2.49-5.28-7.46-5.28-1.83,0-3.95.14-6.35.42l1.34-19.83h18.82v6.4h-12.84l-.5,7.12c1.27-.1,2.37-.15,3.3-.15,3.65,0,6.51.96,8.58,2.88,2.07,1.92,3.1,4.5,3.1,7.74,0,3.59-1.23,6.52-3.69,8.79-2.46,2.27-5.8,3.41-10.02,3.41-3.42,0-6.3-.51-8.63-1.54Z"/>
  <path class="st0" d="M169.25,40.38c-3.47,2-7.79,3-12.94,3-5.72,0-10.23-1.58-13.52-4.75-3.3-3.16-4.95-7.52-4.95-13.08s1.8-10.14,5.4-13.66c3.6-3.52,8.4-5.28,14.38-5.28,3.77,0,7.09.52,9.97,1.56v7.51c-2.74-1.59-6.1-2.38-10.07-2.38-3.32,0-6.03,1.08-8.12,3.24-2.09,2.16-3.14,5.04-3.14,8.64s.94,6.48,2.81,8.48c1.88,2,4.41,3,7.6,3,1.92,0,3.44-.27,4.56-.82v-6.94h-7.12v-6.4h15.12v17.88Z"/>
  <path class="st0" d="M191.19,43.38c-5.09,0-9.24-1.66-12.45-4.97-3.21-3.31-4.81-7.63-4.81-12.95,0-5.62,1.63-10.17,4.88-13.64s7.57-5.21,12.94-5.21c5.07,0,9.18,1.66,12.31,4.98,3.13,3.32,4.7,7.7,4.7,13.14s-1.62,10.09-4.87,13.51c-3.25,3.42-7.48,5.13-12.71,5.13ZM191.54,13.51c-2.81,0-5.04,1.05-6.69,3.16-1.65,2.11-2.48,4.9-2.48,8.37s.83,6.31,2.48,8.35c1.65,2.05,3.82,3.08,6.5,3.08s4.95-1,6.57-2.99c1.62-1.99,2.43-4.76,2.43-8.29s-.79-6.55-2.36-8.6c-1.57-2.05-3.72-3.07-6.45-3.07Z"/>
  <path class="st0" d="M235.84,42.76h-21.17V7.21h8.01v29.06h13.16v6.5Z"/>
  <path class="st0" d="M240.63,42.76V7.21h12.59c12.63,0,18.94,5.78,18.94,17.33,0,5.54-1.72,9.96-5.17,13.26-3.45,3.31-8.04,4.96-13.77,4.96h-12.59ZM248.63,13.73v22.54h3.97c3.47,0,6.19-1.04,8.17-3.12,1.97-2.08,2.96-4.92,2.96-8.5,0-3.39-.98-6.05-2.94-8-1.96-1.94-4.71-2.91-8.24-2.91h-3.92Z"/>
  <path class="st0" d="M299.38,42.76h-21.32V7.21h20.5v6.52h-12.5v7.91h11.63v6.5h-11.63v8.13h13.31v6.5Z"/>
  <path class="st0" d="M337.07,42.76h-8.08l-14.65-22.34c-.86-1.31-1.45-2.29-1.79-2.95h-.1c.13,1.26.2,3.17.2,5.75v19.54h-7.56V7.21h8.63l14.11,21.64c.64.97,1.24,1.94,1.79,2.9h.1c-.13-.83-.2-2.45-.2-4.88V7.21h7.56v35.55Z"/>
  <path class="st0" d="M357.57,41.4v-7.93c1.44,1.21,3,2.11,4.69,2.71,1.69.6,3.39.9,5.11.9,1.01,0,1.89-.09,2.64-.27.75-.18,1.38-.43,1.88-.76.5-.32.88-.7,1.13-1.14.25-.44.37-.91.37-1.43,0-.69-.2-1.31-.59-1.86-.4-.55-.94-1.05-1.62-1.51-.69-.46-1.5-.91-2.44-1.34-.94-.43-1.96-.87-3.05-1.31-2.78-1.16-4.85-2.57-6.21-4.24-1.36-1.67-2.04-3.69-2.04-6.05,0-1.85.37-3.44,1.12-4.77.74-1.33,1.76-2.43,3.04-3.29,1.28-.86,2.76-1.49,4.45-1.9,1.69-.41,3.47-.61,5.36-.61s3.49.11,4.92.33c1.43.22,2.75.57,3.95,1.03v7.41c-.6-.41-1.24-.78-1.95-1.09-.7-.31-1.43-.57-2.17-.78-.74-.21-1.48-.36-2.22-.46-.74-.1-1.43-.15-2.09-.15-.91,0-1.74.09-2.48.26-.74.17-1.37.42-1.88.73-.51.31-.91.69-1.19,1.13-.28.44-.42.93-.42,1.47,0,.6.16,1.13.47,1.6.31.47.76.92,1.34,1.34.58.42,1.28.83,2.11,1.24.83.41,1.76.82,2.8,1.25,1.42.6,2.7,1.23,3.83,1.9,1.13.67,2.1,1.42,2.91,2.27.81.84,1.43,1.81,1.86,2.89.43,1.08.64,2.34.64,3.78,0,1.98-.38,3.65-1.13,5-.75,1.35-1.77,2.44-3.06,3.27-1.29.83-2.79,1.43-4.5,1.8-1.71.36-3.52.55-5.42.55s-3.81-.17-5.57-.5c-1.76-.33-3.29-.83-4.57-1.49Z"/>
  <path class="st0" d="M395.68,30.52v12.25h-8.01V7.21h12.54c8.96,0,13.44,3.78,13.44,11.33,0,3.57-1.29,6.46-3.86,8.67-2.57,2.21-6,3.31-10.3,3.31h-3.82ZM395.68,13.36v11.08h3.15c4.26,0,6.4-1.87,6.4-5.6s-2.13-5.48-6.4-5.48h-3.15Z"/>
  <path class="st0" d="M450.12,42.76h-8.73l-2.53-7.91h-12.64l-2.5,7.91h-8.68l12.94-35.55h9.5l12.64,35.55ZM437.03,28.71l-3.82-11.95c-.28-.89-.48-1.96-.59-3.2h-.2c-.08,1.04-.29,2.08-.62,3.1l-3.87,12.05h9.1Z"/>
  <path class="st0" d="M484.39,42.76h-9.2l-5.53-9.15c-.41-.69-.81-1.31-1.19-1.86-.38-.55-.76-1.01-1.15-1.4-.39-.39-.79-.69-1.21-.89-.42-.21-.88-.31-1.38-.31h-2.16v13.61h-8.01V7.21h12.69c8.63,0,12.94,3.22,12.94,9.67,0,1.24-.19,2.38-.57,3.43-.38,1.05-.92,2-1.61,2.84-.69.84-1.53,1.57-2.52,2.18-.98.61-2.08,1.09-3.28,1.44v.1c.53.17,1.04.43,1.54.81.5.37.97.81,1.44,1.3.46.5.91,1.03,1.33,1.6.42.57.81,1.13,1.15,1.67l6.72,10.51ZM462.57,13.21v9.89h3.47c1.72,0,3.1-.5,4.14-1.49,1.06-1.01,1.59-2.26,1.59-3.74,0-3.11-1.86-4.66-5.58-4.66h-3.62Z"/>
  <path class="st0" d="M517.26,42.76h-10.12l-10.36-15.45c-.2-.3-.51-.95-.94-1.96h-.12v17.4h-8.01V7.21h8.01v16.81h.12c.2-.46.53-1.12.99-1.98l9.82-14.83h9.54l-12.4,16.96,13.46,18.59Z"/>
  <path class="st0" d="M575.18,42.76h-7.91v-21.27c0-2.3.1-4.83.3-7.61h-.2c-.41,2.18-.79,3.75-1.12,4.71l-8.33,24.17h-6.54l-8.48-23.92c-.23-.64-.6-2.3-1.12-4.96h-.22c.21,3.5.32,6.58.32,9.22v19.66h-7.21V7.21h11.73l7.26,21.07c.58,1.69,1,3.38,1.26,5.08h.15c.45-1.97.92-3.68,1.41-5.13l7.26-21.02h11.43v35.55Z"/>
  <path class="st0" d="M612.24,27.37c0,10.68-4.98,16.02-14.93,16.02s-14.48-5.21-14.48-15.64V7.21h8.03v20.63c0,5.75,2.25,8.63,6.74,8.63s6.62-2.78,6.62-8.33V7.21h8.01v20.16Z"/>
  <path class="st0" d="M618.34,41.4v-7.93c1.44,1.21,3,2.11,4.69,2.71,1.69.6,3.39.9,5.11.9,1.01,0,1.89-.09,2.64-.27.75-.18,1.38-.43,1.88-.76.5-.32.88-.7,1.13-1.14.25-.44.37-.91.37-1.43,0-.69-.2-1.31-.59-1.86-.4-.55-.94-1.05-1.62-1.51-.69-.46-1.5-.91-2.44-1.34-.94-.43-1.96-.87-3.05-1.31-2.78-1.16-4.85-2.57-6.21-4.24-1.36-1.67-2.04-3.69-2.04-6.05,0-1.85.37-3.44,1.12-4.77.74-1.33,1.76-2.43,3.04-3.29,1.28-.86,2.76-1.49,4.45-1.9,1.69-.41,3.47-.61,5.36-.61s3.49.11,4.92.33c1.43.22,2.75.57,3.96,1.03v7.41c-.6-.41-1.24-.78-1.95-1.09-.7-.31-1.43-.57-2.17-.78-.74-.21-1.48-.36-2.22-.46-.74-.1-1.43-.15-2.09-.15-.91,0-1.74.09-2.48.26-.74.17-1.37.42-1.88.73-.51.31-.91.69-1.19,1.13-.28.44-.42.93-.42,1.47,0,.6.16,1.13.47,1.6.31.47.76.92,1.34,1.34.58.42,1.28.83,2.11,1.24.83.41,1.76.82,2.8,1.25,1.42.6,2.7,1.23,3.83,1.9,1.13.67,2.1,1.42,2.91,2.27.81.84,1.43,1.81,1.86,2.89.43,1.08.64,2.34.64,3.78,0,1.98-.38,3.65-1.13,5-.75,1.35-1.77,2.44-3.06,3.27-1.29.83-2.79,1.43-4.5,1.8-1.71.36-3.52.55-5.42.55s-3.81-.17-5.57-.5c-1.76-.33-3.29-.83-4.57-1.49Z"/>
  <path class="st0" d="M659.42,7.21v6.2h-2.97v23.16h2.97v6.2h-13.96v-6.2h2.98V13.41h-2.98v-6.2h13.96Z"/>
  <path class="st0" d="M690.02,41.5c-2.59,1.26-5.98,1.88-10.16,1.88-5.45,0-9.74-1.6-12.87-4.81-3.12-3.21-4.69-7.48-4.69-12.82,0-5.69,1.76-10.3,5.27-13.83,3.51-3.54,8.07-5.31,13.67-5.31,3.47,0,6.4.44,8.78,1.31v7.71c-2.38-1.42-5.09-2.13-8.13-2.13-3.34,0-6.03,1.05-8.08,3.15-2.05,2.1-3.08,4.94-3.08,8.53s.97,6.18,2.9,8.22c1.93,2.04,4.54,3.06,7.81,3.06s5.98-.76,8.58-2.28v7.31Z"/>
  <path class="st0" d="M739.82,7.21l-12.25,35.55h-9.07l-12.1-35.55h8.63l7.41,24.74c.4,1.34.64,2.52.72,3.54h.15c.12-1.11.37-2.32.77-3.64l7.36-24.64h8.38Z"/>
  <path class="st0" d="M755.07,7.21v6.2h-2.97v23.16h2.97v6.2h-13.96v-6.2h2.98V13.41h-2.98v-6.2h13.96Z"/>
  <path class="st0" d="M760.18,42.76V7.21h12.59c12.63,0,18.94,5.78,18.94,17.33,0,5.54-1.72,9.96-5.17,13.26-3.45,3.31-8.04,4.96-13.77,4.96h-12.59ZM768.19,13.73v22.54h3.97c3.47,0,6.19-1.04,8.17-3.12,1.97-2.08,2.96-4.92,2.96-8.5,0-3.39-.98-6.05-2.94-8-1.96-1.94-4.71-2.91-8.24-2.91h-3.92Z"/>
  <path class="st0" d="M818.94,42.76h-21.32V7.21h20.5v6.52h-12.5v7.91h11.63v6.5h-11.63v8.13h13.31v6.5Z"/>
  <path class="st0" d="M839.66,43.38c-5.09,0-9.24-1.66-12.45-4.97-3.21-3.31-4.81-7.63-4.81-12.95,0-5.62,1.63-10.17,4.88-13.64,3.26-3.47,7.57-5.21,12.94-5.21,5.07,0,9.18,1.66,12.31,4.98,3.13,3.32,4.7,7.7,4.7,13.14s-1.62,10.09-4.87,13.51c-3.25,3.42-7.48,5.13-12.71,5.13ZM840.01,13.51c-2.81,0-5.04,1.05-6.69,3.16-1.65,2.11-2.48,4.9-2.48,8.37s.83,6.31,2.48,8.35c1.65,2.05,3.82,3.08,6.5,3.08s4.95-1,6.57-2.99c1.62-1.99,2.43-4.76,2.43-8.29s-.79-6.55-2.36-8.6c-1.57-2.05-3.72-3.07-6.45-3.07Z"/>
  <path class="st0" d="M908.41,42.76h-8.73l-2.53-7.91h-12.64l-2.5,7.91h-8.68l12.94-35.55h9.5l12.64,35.55ZM895.32,28.71l-3.82-11.95c-.28-.89-.48-1.96-.59-3.2h-.2c-.08,1.04-.29,2.08-.62,3.1l-3.87,12.05h9.1Z"/>
  <path class="st0" d="M959.36,7.21l-9.4,35.55h-8.88l-5.9-22.81c-.31-1.19-.5-2.52-.57-3.99h-.1c-.15,1.62-.36,2.95-.64,3.99l-6.05,22.81h-9.25l-9.35-35.55h8.75l5.01,23.68c.21,1.01.37,2.36.47,4.07h.15c.07-1.27.31-2.66.72-4.17l6.45-23.58h8.58l5.83,23.88c.21.88.41,2.15.57,3.82h.1c.07-1.31.24-2.63.52-3.97l4.91-23.73h8.08Z"/>
  <path class="st0" d="M995.14,42.76h-8.73l-2.53-7.91h-12.64l-2.5,7.91h-8.68l12.94-35.55h9.5l12.64,35.55ZM982.05,28.71l-3.82-11.95c-.28-.89-.48-1.96-.59-3.2h-.2c-.08,1.04-.29,2.08-.62,3.1l-3.87,12.05h9.1Z"/>
  <path class="st0" d="M1029.4,42.76h-9.2l-5.53-9.15c-.41-.69-.81-1.31-1.19-1.86-.38-.55-.76-1.01-1.15-1.4-.39-.39-.79-.69-1.21-.89-.42-.21-.88-.31-1.38-.31h-2.16v13.61h-8.01V7.21h12.69c8.63,0,12.94,3.22,12.94,9.67,0,1.24-.19,2.38-.57,3.43-.38,1.05-.92,2-1.61,2.84-.69.84-1.53,1.57-2.52,2.18-.98.61-2.08,1.09-3.28,1.44v.1c.53.17,1.04.43,1.54.81.5.37.97.81,1.44,1.3.46.5.91,1.03,1.33,1.6.42.57.81,1.13,1.15,1.67l6.72,10.51ZM1007.58,13.21v9.89h3.47c1.72,0,3.1-.5,4.14-1.49,1.06-1.01,1.59-2.26,1.59-3.74,0-3.11-1.86-4.66-5.58-4.66h-3.62Z"/>
  <path class="st0" d="M1032.72,42.76V7.21h12.59c12.63,0,18.94,5.78,18.94,17.33,0,5.54-1.72,9.96-5.17,13.26-3.45,3.31-8.04,4.96-13.77,4.96h-12.59ZM1040.73,13.73v22.54h3.97c3.47,0,6.19-1.04,8.17-3.12,1.97-2.08,2.96-4.92,2.96-8.5,0-3.39-.98-6.05-2.94-8-1.96-1.94-4.71-2.91-8.24-2.91h-3.92Z"/>
  <path class="st0" d="M1068.53,41.4v-7.93c1.44,1.21,3,2.11,4.69,2.71,1.69.6,3.39.9,5.11.9,1.01,0,1.89-.09,2.64-.27.75-.18,1.38-.43,1.88-.76.5-.32.88-.7,1.13-1.14.25-.44.37-.91.37-1.43,0-.69-.2-1.31-.59-1.86-.4-.55-.94-1.05-1.62-1.51-.69-.46-1.5-.91-2.44-1.34-.94-.43-1.96-.87-3.05-1.31-2.78-1.16-4.85-2.57-6.21-4.24-1.36-1.67-2.04-3.69-2.04-6.05,0-1.85.37-3.44,1.12-4.77.74-1.33,1.76-2.43,3.04-3.29,1.28-.86,2.76-1.49,4.45-1.9,1.69-.41,3.47-.61,5.36-.61s3.49.11,4.92.33c1.43.22,2.75.57,3.96,1.03v7.41c-.6-.41-1.24-.78-1.95-1.09-.7-.31-1.43-.57-2.17-.78-.74-.21-1.48-.36-2.22-.46-.74-.1-1.43-.15-2.09-.15-.91,0-1.74.09-2.48.26-.74.17-1.37.42-1.88.73-.51.31-.91.69-1.19,1.13-.28.44-.42.93-.42,1.47,0,.6.16,1.13.47,1.6.31.47.76.92,1.34,1.34.58.42,1.28.83,2.11,1.24.83.41,1.76.82,2.8,1.25,1.42.6,2.7,1.23,3.83,1.9,1.13.67,2.1,1.42,2.91,2.27.81.84,1.43,1.81,1.86,2.89.43,1.08.64,2.34.64,3.78,0,1.98-.38,3.65-1.13,5-.75,1.35-1.77,2.44-3.06,3.27-1.29.83-2.79,1.43-4.5,1.8-1.71.36-3.52.55-5.42.55s-3.81-.17-5.57-.5c-1.76-.33-3.29-.83-4.57-1.49Z"/>
</svg>