<?xml version="1.0" encoding="UTF-8"?>
<svg id="_圖層_1" data-name="圖層_1" xmlns="http://www.w3.org/2000/svg" version="1.1" viewBox="0 0 1200 300">
  <!-- Generator: Adobe Illustrator 29.6.0, SVG Export Plug-In . SVG Version: 2.1.1 Build 207)  -->
  <defs>
    <style>
      .st0, .st1, .st2 {
        fill: #fff;
      }

      .st1 {
        stroke-width: .83px;
      }

      .st1, .st2 {
        stroke: #fff;
        stroke-miterlimit: 10;
      }

      .st2 {
        stroke-width: 12.74px;
      }
    </style>
  </defs>
  <g>
    <path class="st1" d="M256.11,245.13v7.74h21.43v5.37h-21.43v14.26h24.49v5.44h-54.87v-5.44h24.05v-14.26h-21.11v-5.37h21.11v-7.74h-13.37v-3.33c-3.01,1.53-6.08,2.94-9.27,4.09-.83-1.73-2.49-4.03-3.96-5.5,11.9-3.65,23.47-10.68,29.55-20.08l5.56,2.49c-.58.83-1.09,1.66-1.66,2.43,6.27,6.27,17.01,12.34,26.61,15.16-1.34,1.28-3.2,3.64-4.09,5.18-3.13-1.09-6.33-2.62-9.53-4.35v3.9h-13.49ZM238.39,258.88c2.43,3.39,4.99,8.06,6.01,11.06l-5.18,2.24c-.9-3.01-3.39-7.8-5.69-11.38l4.86-1.92ZM266.73,239.63c-4.99-3.01-9.72-6.52-13.56-10.36-3.71,4.03-8.06,7.48-12.86,10.36h26.41ZM260.97,270.33c2.17-3.07,4.86-7.93,6.2-11.45l5.76,2.11c-2.43,4.03-5.24,8.38-7.42,11.26l-4.54-1.92Z"/>
    <path class="st1" d="M301.83,244.75h-5.63v-13.94h24.11v-3.39h-21.36v-4.16h48.8v4.16h-21.62v3.39h24.69v13.94h-5.95v-9.91h-18.74v13.94h-5.82v-13.94h-18.48v9.91ZM343.72,274.1c3.26,0,3.9-1.02,4.28-6.97,1.22.9,3.45,1.6,4.99,1.92-.77,7.67-2.43,9.72-8.89,9.72h-14.01c-7.87,0-10.04-1.53-10.04-7.29v-1.21h-12.54v3.07h-5.69v-22.51h43.36v19.44h-19.44v1.15c0,2.24.77,2.69,4.73,2.69h13.24ZM302.28,244.94c4.03-.51,9.47-1.34,15.16-2.11l.19,3.45c-4.86,1.15-9.59,2.17-13.75,3.01l-1.6-4.35ZM305.79,235.48c3.84.64,8.95,1.98,11.7,3.13l-1.6,3.39c-2.75-1.15-7.87-2.62-11.83-3.45l1.73-3.07ZM307.52,254.98v3.65h12.54v-3.65h-12.54ZM320.06,266.11v-3.71h-12.54v3.71h12.54ZM339.37,254.98h-13.62v3.65h13.62v-3.65ZM339.37,266.11v-3.71h-13.62v3.71h13.62ZM342.95,249.35c-3.39-1.28-9.91-2.81-14.77-3.52l1.21-3.45c4.86.51,11.32,1.85,14.77,3.07l-1.21,3.9ZM343.02,238.35c-3.58,1.41-8.51,2.62-11.96,3.33l-2.05-2.88c3.45-.83,8.57-2.69,11.58-3.71l2.43,3.26Z"/>
    <path class="st1" d="M414.64,273.85c2.37,0,2.69-1.47,3.01-10.42,1.28,1.02,3.84,2.11,5.5,2.56-.7,10.62-2.24,13.43-7.99,13.43h-8.51c-6.27,0-7.93-1.85-7.93-8.12v-20.98h-10.55c-1.21,13.62-4.22,23.92-20.47,29.29-.64-1.53-2.37-3.97-3.71-5.12,14.71-4.48,16.82-12.86,17.84-24.18h-16.37v-5.69h25.13v-23.73h6.01v23.73h25.65v5.69h-17.52v20.98c0,2.11.38,2.56,2.69,2.56h7.23ZM377.54,241.55c-1.02-4.09-4.09-10.75-7.1-15.73l5.37-1.98c3.13,4.8,6.4,11.19,7.48,15.48l-5.76,2.24ZM417.96,225.43c-2.69,5.56-6.07,11.9-8.76,15.86l-5.12-1.98c2.69-4.28,5.95-11,7.67-16.12l6.2,2.24Z"/>
    <path class="st1" d="M467.07,272.57h24.24v5.37h-53.98v-5.37h23.47v-9.4h-17.2v-5.18h17.2v-8.7h-14.33v-5.18c-2.81,1.98-5.63,3.71-8.31,5.12-.83-1.53-2.37-3.58-3.71-4.86,7.61-3.33,16.37-9.66,22.58-16.12h-10.17v-5.56h20.4c5.69,8.51,16.37,16.82,26.73,20.91-1.21,1.21-3.13,3.71-4.03,5.37-2.75-1.28-5.56-2.88-8.25-4.67v4.99h-14.65v8.7h17.4v5.18h-17.4v9.4ZM446.6,244.04h34.73c-6.59-4.41-12.73-10.1-17.27-15.8-4.6,5.56-11,11.26-17.46,15.8Z"/>
    <path class="st1" d="M561.14,223.71v56.09h-5.88v-2.81h-41.83v2.81h-5.63v-56.09h53.34ZM555.25,271.61v-42.53h-41.83v42.53h41.83ZM550.52,244.3c-1.53,5.82-3.9,10.87-6.84,15.16,1.09,2.75,2.49,4.48,4.16,4.8.77.26,1.34-2.37,1.73-6.33.96.96,2.75,2.24,3.77,2.81-.9,7.29-3.58,9.78-7.29,8.31-2.37-.64-4.28-2.49-5.82-5.31-2.24,2.43-4.8,4.6-7.61,6.39-.64-.9-2.37-2.81-3.33-3.64,1.73-1.02,3.39-2.17,4.92-3.45-6.27,1.02-12.73,2.24-17.84,3.13l-.64-4.48c4.67-.64,11.64-1.73,18.55-2.81l.13,3.96c1.41-1.21,2.69-2.56,3.84-4.03-1.53-4.86-2.49-11.06-3.13-17.84h-18.74v-4.41h18.36c-.13-2.05-.26-4.09-.38-6.14h4.92c.06,2.05.19,4.16.32,6.14h9.02c-1.28-1.47-4.03-3.26-6.33-4.41l2.75-2.75c2.3,1.09,5.12,2.81,6.52,4.22l-2.81,2.94h3.9v4.41h-12.66c.45,4.6,1.09,8.95,1.85,12.54,1.73-3.07,3.01-6.46,3.96-10.17l4.73.96ZM532.49,244.36v12.28h-14.13v-12.28h14.13ZM528.33,247.75h-6.01v5.5h6.01v-5.5Z"/>
    <path class="st1" d="M632.76,241.23v4.6h-55.9v-4.6h24.75v-3.97h-18.55v-4.35h18.55v-3.58h-20.85v-4.6h20.85v-3.84h6.01v3.84h21.81v4.6h-21.81v3.58h19.12v4.35h-19.12v3.97h25.13ZM624.7,273.53c0,2.94-.77,4.35-3.01,5.12-2.3.77-5.88.77-11.13.77-.26-1.41-1.09-3.45-1.79-4.8,3.52.13,7.48.13,8.44.13,1.09-.06,1.41-.32,1.41-1.28v-4.03h-28.08c-.7,3.96-2.05,7.93-4.54,10.94-.83-1.21-3.26-3.52-4.54-4.35,3.58-4.41,3.96-10.55,3.96-15.41v-11.38h39.27v24.3ZM618.62,265.41v-3.84h-27.37c0,1.21-.06,2.56-.19,3.84h27.56ZM591.25,253.7v3.77h27.37v-3.77h-27.37Z"/>
    <path class="st1" d="M704,265.47h-22.45v14.13h-6.14v-14.13h-29.1v-5.76h10.3v-16.88h18.8v-8.83h-14.65c-2.75,4.73-5.95,8.95-9.21,12.15-1.15-1.02-3.71-2.94-5.18-3.84,5.88-5.05,11-13.17,13.94-21.68l6.01,1.6c-.77,1.98-1.66,4.09-2.49,6.01h37.03v5.76h-19.31v8.83h17.84v5.56h-17.84v11.32h22.45v5.76ZM675.41,259.71v-11.32h-12.85v11.32h12.85Z"/>
    <path class="st1" d="M719.72,227.42h8.51l8.63,23.85c1.09,3.13,2.05,6.33,3.13,9.47h.32c1.09-3.13,1.98-6.33,3.07-9.47l8.51-23.85h8.57v47.13h-6.91v-23.28c0-4.22.58-10.3.96-14.58h-.26l-3.77,10.87-8.19,22.45h-4.6l-8.25-22.45-3.71-10.87h-.26c.32,4.28.9,10.36.9,14.58v23.28h-6.65v-47.13Z"/>
    <path class="st1" d="M772.86,227.42h7.87l6.97,24.43c1.6,5.37,2.69,9.98,4.28,15.41h.32c1.66-5.44,2.75-10.04,4.28-15.41l6.97-24.43h7.55l-14.71,47.13h-8.76l-14.77-47.13Z"/>
    <path class="st1" d="M854.07,244.75c4.35,13.3,12.41,24.11,24.49,29.16-1.47,1.28-3.45,3.77-4.41,5.56-11.96-5.56-19.7-15.93-24.69-29.48-3.26,11.58-10.17,22.64-24.69,29.48-.96-1.6-2.88-3.71-4.54-4.99,15.22-6.65,21.42-18.16,23.98-29.74h-22.7v-6.14h23.79c.77-6.39.7-12.53.77-17.65h6.46c-.06,5.18-.13,11.32-.9,17.65h25.77v6.14h-23.34Z"/>
    <path class="st1" d="M937.72,271.23h-6.97c5.88,1.6,11.77,3.45,15.73,4.73l-4.86,3.33c-4.22-1.53-11.26-3.9-18.29-5.88l2.49-2.17h-12.92l2.94,1.92c-5.12,2.81-13.62,5.18-20.53,6.33-.83-1.02-2.37-2.81-3.52-3.84,5.69-.9,12.47-2.62,16.95-4.41h-6.97v-14.71c-2.69,1.53-5.5,2.88-8.25,3.77-.77-1.21-2.37-3.33-3.52-4.28,5.31-1.47,11-4.16,15.16-7.35h-13.37v-4.28h15.8v-2.3h-8.31v-3.26h8.31v-2.49h-9.21v-3.39h9.21v-2.49h5.5v2.49h13.24v-2.49h5.56v2.49h9.15v3.39h-9.15v2.49h8.51v3.26h-8.51v2.3h15.86v4.28h-12.41c3.9,2.81,9.15,5.12,14.13,6.33-1.21,1.15-2.94,3.2-3.71,4.6-2.69-.9-5.44-2.17-8.06-3.65v15.29ZM897.81,234.84h-5.44v-10.1h24.88c-.45-1.02-.96-2.05-1.47-2.94l5.88-1.53c.83,1.34,1.79,3.01,2.37,4.48h23.15v10.1h-5.63v-5.5h-43.75v5.5ZM932.03,254.47h-24.81v2.43h24.81v-2.43ZM932.03,259.97h-24.81v2.49h24.81v-2.49ZM932.03,265.53h-24.81v2.56h24.81v-2.56ZM911.82,248.65c-.83.96-1.79,1.79-2.81,2.69h22.38c-.96-.9-1.85-1.73-2.75-2.69h-16.82ZM913.1,238.8h13.24v-2.49h-13.24v2.49ZM913.1,244.36h13.24v-2.3h-13.24v2.3Z"/>
  </g>
  <g>
    <path class="st2" d="M334.99,162.01c-18.45,8.03-38.95,12.04-61.5,12.04-26.23,0-47.43-6.51-63.62-19.54-16.19-13.02-24.28-30.26-24.28-51.7s8.99-39.88,26.97-53.92c17.98-14.04,40.77-21.06,68.36-21.06,19.99,0,36.78,2.5,50.36,7.5v18.35c-14.86-7.24-32.46-10.85-52.79-10.85s-37.46,5.46-50.61,16.38c-13.16,10.92-19.73,25.06-19.73,42.43s6.11,31.95,18.32,42.18c12.21,10.23,28.79,15.34,49.72,15.34,14.35,0,26.78-2.2,37.29-6.61v-39.66h-40.23v-15h61.76v64.13Z"/>
    <path class="st2" d="M355.96,165.96v-19.54c2.9,1.97,6.38,3.75,10.44,5.33,4.06,1.58,8.33,2.91,12.81,4,4.49,1.09,8.99,1.92,13.52,2.52,4.53.59,8.71.89,12.56.89,13.24,0,23.13-1.89,29.66-5.67,6.54-3.78,9.8-9.23,9.8-16.33,0-3.81-1.09-7.14-3.27-9.96-2.18-2.83-5.19-5.41-9.03-7.75-3.84-2.33-8.39-4.57-13.65-6.71-5.25-2.14-10.91-4.39-16.98-6.76-6.41-2.5-12.39-5.03-17.94-7.6-5.55-2.56-10.38-5.39-14.48-8.49-4.1-3.09-7.33-6.59-9.67-10.51-2.35-3.91-3.52-8.5-3.52-13.76,0-6.45,1.84-12.05,5.51-16.82,3.67-4.77,8.5-8.7,14.48-11.79,5.98-3.09,12.79-5.39,20.44-6.91,7.64-1.51,15.44-2.27,23.39-2.27,18.11,0,31.31,1.68,39.59,5.03v18.65c-10.85-5.79-24.77-8.68-41.77-8.68-4.7,0-9.4.38-14.1,1.13-4.7.76-8.89,1.99-12.56,3.7-3.67,1.71-6.66,3.91-8.97,6.61-2.31,2.7-3.46,5.99-3.46,9.87,0,3.62.88,6.74,2.63,9.37,1.75,2.63,4.33,5.03,7.75,7.2,3.42,2.17,7.58,4.28,12.49,6.31,4.91,2.04,10.57,4.28,16.98,6.71,6.58,2.5,12.81,5.13,18.71,7.89,5.89,2.76,11.06,5.82,15.5,9.18,4.44,3.35,7.96,7.07,10.57,11.15,2.6,4.08,3.91,8.75,3.91,14.01,0,6.97-1.77,12.88-5.32,17.71-3.55,4.83-8.33,8.77-14.35,11.79-6.02,3.03-12.96,5.21-20.82,6.56-7.86,1.35-16.15,2.02-24.86,2.02-2.91,0-6.49-.18-10.76-.54-4.27-.36-8.63-.89-13.07-1.58-4.44-.69-8.65-1.54-12.62-2.56-3.97-1.02-7.16-2.15-9.55-3.4Z"/>
    <path class="st2" d="M678.16,171.68h-21.4v-94.91c0-7.5.6-16.67,1.79-27.53h-.51c-2.05,6.38-3.89,10.95-5.51,13.71l-62.79,108.73h-10.51l-62.66-107.94c-1.79-3.16-3.63-7.99-5.51-14.5h-.51c.68,5.66,1.03,14.9,1.03,27.72v94.72h-20.76V30.2h28.45l56.38,98.66c4.36,7.56,7.17,13.22,8.46,16.97h.77c3.67-7.76,6.62-13.55,8.84-17.36l57.53-98.27h26.91v141.48Z"/>
    <path class="st2" d="M849.94,30.2l-68.04,141.48h-23.71l-66.63-141.48h23.96l50.87,112.18c1.62,3.62,2.86,7.8,3.72,12.53h.51c.68-3.95,2.09-8.19,4.23-12.73l51.89-111.98h23.19Z"/>
    <path class="st2" d="M1005.45,171.68h-23.83l-19.48-39.66h-77.91l-18.32,39.66h-23.96l70.47-141.48h22.29l70.73,141.48ZM955.09,117.12l-28.83-60.28c-.94-1.97-1.88-5.13-2.82-9.47h-.51c-.85,4.01-1.84,7.17-2.95,9.47l-28.57,60.28h63.68Z"/>
  </g>
  <path class="st0" d="M61.66,82.58l-27.68,88.29c-.15.49.51.81.8.38,11.04-16.67,23.25-35.02,28.58-34.37,9.11.83-23.45,86.81-41.62,144.18-.16.51.55.82.81.36l83.45-144.16c.26-.45-.33-.91-.7-.54-6.02,5.97-12.21,10.43-15.96,6.42-9.72-4.12,41.97-124.21,41.97-124.21.12-.48-.52-.76-.8-.35-31.05,45.48-59.47,89.29-64.31,86.2-3.94.45-4.34-9.24-3.66-22.02.03-.52-.71-.66-.87-.16Z"/>
  <path class="st0" d="M1108.63,82.58l-27.68,88.29c-.15.49.51.81.8.38,11.04-16.67,23.25-35.02,28.58-34.37,9.11.83-23.45,86.81-41.62,144.18-.16.51.55.82.81.36l83.45-144.16c.26-.45-.33-.91-.7-.54-6.02,5.97-12.21,10.43-15.96,6.42-9.72-4.12,41.97-124.21,41.97-124.21.12-.48-.52-.76-.8-.35-31.05,45.48-59.47,89.29-64.31,86.2-3.94.45-4.34-9.24-3.66-22.02.03-.52-.71-.66-.87-.16Z"/>
</svg>